<?xml version="1.0" encoding="iso-8859-1"?>
<!-- Generator: Adobe Illustrator 28.4.1, SVG Export Plug-In . SVG Version: 6.00 Build 0)  -->
<svg version="1.1" xmlns="http://www.w3.org/2000/svg" xmlns:xlink="http://www.w3.org/1999/xlink"
	x="0px" y="0px"
	viewBox="0 0 500 160" style="enable-background:new 0 0 500 160;" xml:space="preserve">
<g>
	<path style="fill:#F7941D;" d="M100.3,112.1V76.7c0-9.6-3.7-14-11.6-14c-5.9,0-11.3,3.1-15.5,7.1c0.1,0.7,0.2,3.6,0.2,4.9v37.4H66
		V76.7c0-9.6-3.7-14-11.6-14c-5.8,0-11,2.6-15.2,6.4v43.1h-7.4v-55l7.4-1.6c0,0,0,7.1,0,7.6c5.6-5.2,11.8-7.6,17.4-7.6
		c6.8,0,12.2,3,14.9,9.1c6.1-6.1,13.1-9.1,19.4-9.1c10.4,0,16.9,6.8,16.9,19v37.6H100.3z"/>
	<path style="fill:#F7941D;" d="M145.1,111.5l-4.4,11.9c-5,13.4-10.3,17.3-17.8,17.3c-4.2,0-7.3-1.1-10.7-2.5l2.3-6.8
		c2.6,1.4,5.4,2.4,8.4,2.4c4.2,0,7.3-2.3,11.3-12.7l3.7-9.7l-21.5-54.1h8l17.3,45.4l16.9-45.4h7.8L145.1,111.5z"/>
	<path style="fill:#EF4823;" d="M195,113.9c-8,0.1-15-1.3-21-3.2l-1.8-21.2h4.8l5,16.6c4,1.8,10.1,3.2,14.8,3.2
		c10.9-0.1,16.8-6.8,16.8-14.2c0-10-7.3-13.3-18.8-17.6c-11.6-4.4-21-9-21-21.6c0-10.7,8-20.3,24.7-20.4c6.5-0.1,10.7,0.6,14,1.3
		l6.2-1.8v23.6h-4.8l-3.4-15.4c-4-1.8-9.4-3-13.7-3c-9.7,0-14.5,6-14.5,12.5c0,9.7,7.9,12.8,18.5,16.9c12.1,4.4,21.6,9,21.6,22.2
		C222.5,103.6,212,113.8,195,113.9z"/>
	<path style="fill:#EF4823;" d="M255.6,113.8c-13.9,0-24.1-11.3-24.1-26.9c0-17.5,12.8-30.1,28-30.1c10.8,0,17.2,5.5,17.2,11.2
		c0,4.6-3.2,6.1-6.1,6.1c-4.3,0-7.3-4.6-5.5-10.6v-0.2c-1.7-1.2-4.4-2.2-7.6-2.2c-9.5,0-16.8,8.6-16.8,21.6
		c0,13.4,7.9,23.5,18.8,23.5c5.5,0,11-2.2,15.4-7.3l2.4,1.4C272.9,108.8,264.9,113.8,255.6,113.8z"/>
	<path style="fill:#EF4823;" d="M318.7,68.9c-2.5,0-4.7-1.8-5.8-3.8c-3.7,2.3-9.2,7.8-12.2,13.8v27c0,1,0.5,1.6,3.2,1.7l6.4,0.5
		l0.4,4.1h-26.8l0.4-4.1l4.8-0.5c2.2-0.1,3-0.6,3-1.8v-34c0-5.5-0.6-6.2-3.7-7.1l-4.9-0.7l0.2-3.2l17-4v15.6h0.5
		c7-11.6,11.3-15.7,16.4-15.7c4.3,0,6.7,2.8,6.7,6.1S322.3,68.9,318.7,68.9z"/>
	<path style="fill:#EF4823;" d="M328.2,112.1l0.4-4.1l5-0.5c2-0.1,3-0.6,3-1.8V72c0-5.8-0.7-6.5-4.1-7.3l-4.8-0.7l0.2-3.2l17.2-4
		v49.1c0,1,0.6,1.6,3.4,1.7l5,0.5l0.4,4.1H328.2z M339.6,46c-4.1,0-6.1-3.2-6.1-6.7c0-3.5,2-6.7,6.1-6.7s6.1,3.1,6.1,6.7
		C345.7,42.7,343.7,46,339.6,46z"/>
	<path style="fill:#EF4823;" d="M386.3,113.9c-3.5,0-10-1.3-13.3-2.8h-0.2l-5.4,3.5H366V40.7c0-1.3-0.4-2-1.2-2.3l-9-2.6l0.4-3
		l18.4-4.3v37.4h0.5c4.3-4.7,10.6-8.5,17.4-8.5c13.1,0,21.7,11.3,21.7,26.2C414.1,99.7,403.4,113.9,386.3,113.9z M388.8,64.6
		c-6,0-11,3.5-14.3,7.2v30.8c3.7,3.5,8,6.6,13.8,6.6c9.2,0,16.6-8.9,16.6-22.3S398.4,64.6,388.8,64.6z"/>
	<path style="fill:#EF4823;" d="M446.5,113.8c-13.9,0-24.1-11.3-24.1-26.9c0-17.5,12.6-30.1,27.5-30.1c11.3,0,18.5,7.1,18.5,17.4
		c0,2-0.2,4.7-0.6,6.4L431.6,80c-0.1,0.5-0.1,2.4-0.1,2.9c0,13.6,7.9,23.3,18.8,23.3c5.5,0,11-2.2,15.4-7.3l2.4,1.4
		C463.8,108.8,455.9,113.8,446.5,113.8z M447.7,61c-6.6,0-13.7,5.8-15.6,15.5c0,0,27.1-0.1,26.6-0.1C459.3,67,454.9,61,447.7,61z"/>
</g>
</svg>