<?xml version="1.0" encoding="UTF-8"?>
<svg xmlns="http://www.w3.org/2000/svg" viewBox="0 0 32 32" width="24" height="24" fill="none">
  <path fill="currentColor"
    d="M12.74,15.1h-6.25c-1.3,0-2.36-1.06-2.36-2.36v-6.25c0-1.3,1.06-2.36,2.36-2.36h6.25c1.3,0,2.36,1.06,2.36,2.36v6.25c0,1.3-1.06,2.36-2.36,2.36ZM6.49,5.21c-.71,0-1.28.57-1.28,1.28v6.25c0,.71.57,1.28,1.28,1.28h6.25c.71,0,1.28-.57,1.28-1.28v-6.25c0-.71-.57-1.28-1.28-1.28h-6.25Z" />
  <path fill="currentColor"
    d="M28.07,6.49c0-1.3-1.06-2.36-2.36-2.36h-6.25c-1.3,0-2.36,1.06-2.36,2.36v6.25c0,1.3,1.06,2.36,2.36,2.36h6.25c1.3,0,2.36-1.06,2.36-2.36v-5.43h0v-.82ZM26.99,12.74c0,.71-.57,1.28-1.28,1.28h-6.25c-.71,0-1.28-.57-1.28-1.28v-6.25c0-.71.57-1.28,1.28-1.28h6.25c.71,0,1.28.57,1.28,1.28v.82h0v5.43Z" />
  <path fill="currentColor"
    d="M25.71,28.07h-6.25c-1.3,0-2.36-1.06-2.36-2.36v-6.25c0-1.3,1.06-2.36,2.36-2.36h6.25c1.3,0,2.36,1.06,2.36,2.36v6.25c0,1.3-1.06,2.36-2.36,2.36ZM19.46,18.18c-.71,0-1.28.57-1.28,1.28v6.25c0,.71.57,1.28,1.28,1.28h6.25c.71,0,1.28-.57,1.28-1.28v-6.25c0-.71-.57-1.28-1.28-1.28h-6.25Z" />
  <path fill="currentColor"
    d="M12.74,17.1h-6.25c-1.3,0-2.36,1.06-2.36,2.36v6.25c0,1.3,1.06,2.36,2.36,2.36h6.25c1.3,0,2.36-1.06,2.36-2.36v-6.25c0-1.3-1.06-2.36-2.36-2.36ZM14.02,25.71c0,.71-.57,1.28-1.28,1.28h-6.18s-.02,0-.04,0c-.01,0-.02,0-.04,0-.71,0-1.28-.57-1.28-1.28v-6.25c0-.71.57-1.28,1.28-1.28h6.25c.71,0,1.28.57,1.28,1.28v6.25Z" />
  <path fill="currentColor"
    d="M24.96,22.12h-1.9v-1.9c0-.26-.21-.46-.46-.46s-.46.21-.46.46v1.9h-1.9c-.26,0-.46.21-.46.46s.21.46.46.46h1.9v1.9c0,.26.21.46.46.46s.46-.21.46-.46v-1.9h1.9c.26,0,.46-.21.46-.46s-.21-.46-.46-.46Z" />
</svg>
