<?xml version="1.0" encoding="UTF-8"?>
<svg xmlns="http://www.w3.org/2000/svg" viewBox="0 0 16 16" height="16" width="16" fill="none"
  stroke-width="0">
  <path fill="currentColor"
    d="M14.93,11.61L9.82,2.23c-.39-.64-1.07-1.03-1.82-1.03s-1.43.39-1.82,1.03L1.07,11.61c-.39.67-.4,1.46-.02,2.13.38.67,1.07,1.07,1.84,1.07h10.21c.77,0,1.46-.4,1.84-1.07.38-.67.37-1.46-.02-2.13ZM14.21,13.32c-.23.41-.64.64-1.1.64H2.89c-.46,0-.87-.24-1.1-.64-.23-.4-.23-.88,0-1.28L6.91,2.66c.23-.39.64-.62,1.09-.62s.86.23,1.09.62l5.11,9.38c.24.4.24.88,0,1.28Z" />
  <path fill="currentColor"
    d="M8,11.15c-.51,0-.93.42-.93.93s.42.93.93.93.93-.42.93-.93-.42-.93-.93-.93Z" />
  <path fill="currentColor"
    d="M8,4.25c-.51,0-.93.42-.93.93l.18,4.03c0,.51.24.93.75.93s.75-.42.75-.93l.18-4.03c0-.51-.42-.93-.93-.93Z" />
</svg>