<?xml version="1.0" encoding="UTF-8"?>
<svg xmlns="http://www.w3.org/2000/svg" viewBox="0 0 48 32" width="48" height="32" fill="none">
  <defs>
    <style>
      .cls-2{fill:var(--bs-gray-600);}</style>
  </defs>
  <path fill="currentColor"
    d="M36.78,12.96c.45.39.51,1.07.12,1.52l-10.07,11.75c-.3.36-.75.56-1.22.57-.47,0-.91-.19-1.23-.54l-4.68-5.26c-.4-.45-.36-1.13.09-1.52l.81-.72c.45-.4,1.13-.36,1.52.09l3.45,3.88,8.86-10.34c.39-.45,1.07-.51,1.52-.12l.82.7Z" />
  <path fill="currentColor"
    d="M32.37,26.65h-2.93l-.9,1.05c-.29.34-.65.61-1.04.83h4.87c1.04,0,1.88-.84,1.88-1.88v-5.61l-1.88,2.2v3.42ZM32.37,26.65v.94-.94Z" />
  <path fill="currentColor"
    d="M21.73,26.65h-8.25V6.07h18.9s0,5.26,0,5.26l.36-.42c.41-.47.94-.8,1.52-.99v-3.85c0-1.04-.84-1.88-1.88-1.88H13.47c-1.04,0-1.88.84-1.88,1.88v20.57c0,1.04.84,1.88,1.88,1.88h10.23c-.37-.21-.71-.46-.99-.78l-.98-1.1Z" />
  <path fill="currentColor"
    d="M29.22,10.85h-12.6c-.43,0-.79-.35-.79-.79s.35-.79.79-.79h12.6c.43,0,.79.35.79.79s-.35.79-.79.79Z" />
  <path fill="currentColor"
    d="M29.22,15.05h-12.6c-.43,0-.79-.35-.79-.79s.35-.79.79-.79h12.6c.43,0,.79.35.79.79s-.35.79-.79.79Z" />
  <path fill="currentColor"
    d="M18.28,19.25h-1.66c-.43,0-.79-.35-.79-.79s.35-.79.79-.79h1.66c.43,0,.79.35.79.79s-.35.79-.79.79Z" />
  <path fill="currentColor"
    d="M17.59,23.45h-.97c-.43,0-.79-.35-.79-.79s.35-.79.79-.79h.97c.43,0,.79.35.79.79s-.35.79-.79.79Z" />
  <path fill="currentColor"
    d="M26.99,19.25h-2.47c-.43,0-.79-.35-.79-.79s.35-.79.79-.79h2.47c.43,0,.79.35.79.79s-.35.79-.79.79Z" />
  <path class="cls-2"
    d="M46.85,19.51v5.03c0,.29-.24.53-.52.53s-.52-.24-.52-.53v-3.23l-.17.17-3.43,3.43c-.1.1-.23.15-.37.15s-.27-.05-.37-.15c-.1-.1-.15-.23-.15-.37,0-.14.05-.27.15-.37l3.43-3.43.17-.17h-3.23c-.29,0-.52-.24-.52-.53s.24-.53.52-.53h5.02" />
  <path class="cls-2"
    d="M40.38,20.95c.29,0,.52.24.52.53s-.24.53-.52.53h-.98v4.95h4.95v-.97c0-.29.24-.53.52-.53s.52.24.52.53v2.03h-7.05v-7.05h2.02" />
</svg>