<?xml version="1.0" encoding="UTF-8"?>
<svg xmlns="http://www.w3.org/2000/svg" viewBox="0 0 32 32" width="32" height="32" fill="none">
  <path fill="currentColor"
    d="M4.28,5.2h19.44c.6,0,1.08.48,1.08,1.08h0c0,.6-.48,1.08-1.08,1.08H4.28c-.6,0-1.08-.48-1.08-1.08h0c0-.6.48-1.08,1.08-1.08Z" />
  <rect fill="currentColor" x="3.2" y="11.68" width="14.04" height="2.16" rx="1.08" ry="1.08" />
  <rect fill="currentColor" x="3.2" y="18.16" width="4.32" height="2.16" rx="1.08" ry="1.08" />
  <path fill="currentColor"
    d="M4.28,24.64h5.4c.6,0,1.08.48,1.08,1.08h0c0,.6-.48,1.08-1.08,1.08h-5.4c-.6,0-1.08-.48-1.08-1.08h0c0-.6.48-1.08,1.08-1.08Z" />
  <path fill="currentColor"
    d="M28.42,12.96c.45.39.51,1.07.12,1.52l-10.07,11.75c-.3.36-.75.56-1.22.57-.47,0-.91-.19-1.23-.54l-4.68-5.26c-.4-.45-.36-1.13.09-1.52l.81-.72c.45-.4,1.13-.36,1.52.09l3.45,3.88,8.86-10.34c.39-.45,1.07-.51,1.52-.12l.82.7Z" />
</svg>