<?xml version="1.0" encoding="UTF-8"?>
<svg xmlns="http://www.w3.org/2000/svg" viewBox="0 0 16 16" fill="none" width="16" height="16">
  <path fill="currentColor" stroke-width="0"
    d="M12.6,6.41v-2.91c0-1.16-.94-2.1-2.1-2.1H3.5c-1.16,0-2.1.94-2.1,2.1v9c0,1.16.94,2.1,2.1,2.1h9c1.16,0,2.1-.94,2.1-2.1v-4c0-1.12-.89-2.04-2-2.09ZM5.6,2.6h2.8v.8h-2.8v-.8ZM2.6,12.5V3.5c0-.5.4-.9.9-.9h.9v.9c0,.61.49,1.1,1.1,1.1h3c.61,0,1.1-.49,1.1-1.1v-.9h.9c.5,0,.9.4.9.9v2.9h-1.9c-1.16,0-2.1.94-2.1,2.1v4c0,.32.08.63.21.9H3.5c-.5,0-.9-.4-.9-.9ZM13.4,12.5c0,.5-.4.9-.9.9h-3c-.5,0-.9-.4-.9-.9v-4c0-.5.4-.9.9-.9h3c.5,0,.9.4.9.9v4Z" />
</svg>