<svg width="24" height="24" viewBox="0 0 24 24" fill="none" xmlns="http://www.w3.org/2000/svg">
<rect x="1.20575" y="3" width="18" height="1.8" rx="0.9" fill="currentColor"/>
<rect x="1.20575" y="8.39999" width="11.7" height="1.8" rx="0.9" fill="currentColor"/>
<rect x="1.20575" y="13.8" width="3.6" height="1.8" rx="0.9" fill="currentColor"/>
<rect x="1.20575" y="19.2" width="6.3" height="1.8" rx="0.9" fill="currentColor"/>
<path fill-rule="evenodd" clip-rule="evenodd" d="M22.226 9.46786C22.6034 9.79134 22.6471 10.3595 22.3236 10.7369L13.9308 20.5286C13.677 20.8246 13.3078 20.9964 12.9179 20.9999C12.5281 21.0035 12.1558 20.8383 11.8968 20.5469L7.9978 16.1606C7.66757 15.7891 7.70104 15.2202 8.07254 14.89L8.74521 14.292C9.11671 13.9618 9.68558 13.9953 10.0158 14.3668L12.8873 17.5972L20.2736 8.97976C20.5971 8.60237 21.1653 8.55866 21.5427 8.88214L22.226 9.46786Z" fill="currentColor"/>
</svg>
