<?xml version="1.0" encoding="UTF-8"?>
<svg xmlns="http://www.w3.org/2000/svg" viewBox="0 0 32 32" width="32" height="32" fill="none">
  <polygon fill="currentColor"
    points="23.37 13.04 15.2 22.31 14.65 25.41 17.66 24.48 25.83 15.21 26.19 14.8 23.73 12.63 23.37 13.04" />
  <path fill="currentColor"
    d="M25.18,10.99l-.9,1.02,2.46,2.17.9-1.02c.4-.45.35-1.15-.1-1.54l-.82-.72c-.45-.4-1.15-.35-1.54.1Z" />
  <path fill="currentColor"
    d="M5.17,5.2h19.44c.6,0,1.08.48,1.08,1.08h0c0,.6-.48,1.08-1.08,1.08H5.17c-.6,0-1.08-.48-1.08-1.08h0c0-.6.48-1.08,1.08-1.08Z" />
  <rect fill="currentColor" x="4.09" y="11.68" width="15.79" height="2.16" rx="1.08" ry="1.08" />
  <rect fill="currentColor" x="4.09" y="18.16" width="10.44" height="2.16" rx="1.08" ry="1.08" />
  <path fill="currentColor"
    d="M5.17,24.64h4.14c.6,0,1.08.48,1.08,1.08h0c0,.6-.48,1.08-1.08,1.08h-4.14c-.6,0-1.08-.48-1.08-1.08h0c0-.6.48-1.08,1.08-1.08Z" />
  <path fill="currentColor"
    d="M21.75,24.64h2.86c.6,0,1.08.48,1.08,1.08h0c0,.6-.48,1.08-1.08,1.08h-2.86c-.6,0-1.08-.48-1.08-1.08h0c0-.6.48-1.08,1.08-1.08Z" />
</svg>