<?xml version="1.0" encoding="UTF-8"?>
<svg xmlns="http://www.w3.org/2000/svg" viewBox="0 0 32 32" width="24" height="24" file="none">
  <path fill="currentColor"
    d="M26.23,4.46c-.11,0-.22,0-.34.02-.8-1.17-2.12-1.88-3.54-1.88-1.01,0-1.98.36-2.75,1.01-.62-.58-1.44-.91-2.31-.91-1.85,0-3.35,1.49-3.37,3.33-.17.06-.33.14-.49.23-4.78.67-8.47,4.78-8.47,9.74v1.31c-.48.58-1.95,2.43-2.46,3.69-.16.39-.14.79.06,1.15.41.73,1.51,1.12,2.2,1.3v5.34c0,.35.28.62.62.62h9.92c.35,0,.62-.28.62-.62s-.28-.62-.62-.62H6.02v-5.22c0-.3-.22-.56-.52-.62-.74-.13-1.68-.48-1.84-.85.53-1.3,2.39-3.51,2.41-3.53.1-.11.15-.26.15-.4v-1.53c0-3.78,2.46-6.99,5.85-8.14-.13.35-.21.72-.21,1.11,0,1.55,1.14,2.84,2.67,3.08.48,1.65,1.97,2.79,3.72,2.79,1.13,0,2.19-.49,2.92-1.33.56.3,1.18.45,1.82.45.06,0,.12-.01.18-.01.16.66.25,1.35.25,2.06v12.55c0,.35.28.62.62.62s.62-.28.62-.62v-12.55c0-.8-.1-1.57-.28-2.31,1.12-.43,2.01-1.35,2.37-2.53,1.6-.26,2.83-1.66,2.83-3.33,0-1.86-1.51-3.37-3.37-3.37ZM26.26,9.95h-.52s-.09.52-.09.52c-.17.93-.8,1.68-1.63,2.02-.32.13-.67.21-1.03.21-.08,0-.16-.01-.23-.02-.49-.04-.96-.21-1.37-.52l-.54-.4-.36.57c-.49.78-1.32,1.25-2.23,1.25-1.3,0-2.39-.94-2.59-2.23l-.12-.54-.55.02c-1.04,0-1.88-.84-1.88-1.88,0-.62.31-1.17.78-1.51.23-.16.5-.28.8-.33l.62-.1-.1-.62c-.01-.08-.02-.16-.03-.24,0-.03,0-.06,0-.09,0-1.17.95-2.12,2.12-2.12.7,0,1.36.35,1.75.93l.46.67.53-.62c.59-.69,1.43-1.08,2.31-1.08,1.12,0,2.14.62,2.68,1.62l.23.43.47-.11c.19-.05.35-.07.5-.07,1.17,0,2.12.95,2.12,2.12s-.94,2.1-2.09,2.12Z" />
  <path fill="currentColor"
    d="M17.16,17.85c-.73,0-1.32-.59-1.32-1.32s.59-1.32,1.32-1.32,1.32.59,1.32,1.32-.59,1.32-1.32,1.32ZM17.16,16.04c-.27,0-.48.22-.48.48s.22.48.48.48.48-.22.48-.48-.22-.48-.48-.48Z" />
  <path fill="currentColor"
    d="M15.12,20.46c-.61,0-1.1-.5-1.1-1.1s.5-1.1,1.1-1.1,1.1.5,1.1,1.1-.5,1.1-1.1,1.1ZM15.12,18.95c-.22,0-.4.18-.4.4s.18.4.4.4.4-.18.4-.4-.18-.4-.4-.4Z" />
  <circle fill="currentColor" cx="9.58" cy="16.08" r="1.21" />
  <path fill="currentColor"
    d="M19.62,10.86l-2.06-2.1c-.19-.2-.19-.51,0-.71.2-.19.51-.19.71,0l1.37,1.4,2.96-2.82c.2-.19.52-.18.71.02.19.2.18.52-.02.71l-3.67,3.5Z" />
</svg>
