<?xml version="1.0" encoding="UTF-8"?>
<svg xmlns="http://www.w3.org/2000/svg" viewBox="0 0 32 32" width="32" height="32" fill="none">
  <path fill="currentColor"
    d="M22.62,24.41c-.86-2.39-2.65-4.29-4.93-5.17,2.28-.88,4.07-2.79,4.93-5.17.86,2.39,2.65,4.29,4.93,5.17-2.28.88-4.07,2.79-4.93,5.17Z" />
  <path fill="currentColor"
    d="M22.62,26.81l-.76-2.12c-.79-2.19-2.41-3.9-4.46-4.69l-1.95-.76,1.95-.76c2.05-.79,3.67-2.5,4.46-4.69l.76-2.12.76,2.12c.79,2.19,2.41,3.9,4.46,4.69l1.95.76-1.95.76c-2.05.79-3.67,2.5-4.46,4.69l-.76,2.12Z" />
  <path fill="currentColor"
    d="M9.17,5.19h15.05c.6,0,1.08.48,1.08,1.08h0c0,.6-.48,1.08-1.08,1.08h-15.05c-.6,0-1.08-.48-1.08-1.08h0c0-.6.48-1.08,1.08-1.08Z" />
  <rect fill="currentColor" x="8.09" y="11.67" width="8.57" height="2.16" rx="1.08" ry="1.08" />
  <rect fill="currentColor" x="8.09" y="18.15" width="4.25" height="2.16" rx="1.08" ry="1.08" />
  <path fill="currentColor"
    d="M9.17,24.63h6.41c.6,0,1.08.48,1.08,1.08h0c0,.6-.48,1.08-1.08,1.08h-6.41c-.6,0-1.08-.48-1.08-1.08h0c0-.6.48-1.08,1.08-1.08Z" />
  <circle fill="currentColor" cx="4.78" cy="6.27" r="1.08" />
  <circle fill="currentColor" cx="4.78" cy="12.75" r="1.08" />
  <circle fill="currentColor" cx="4.78" cy="19.23" r="1.08" />
  <circle fill="currentColor" cx="4.78" cy="25.71" r="1.08" />
</svg>