<?xml version="1.0" encoding="UTF-8"?>
<svg xmlns="http://www.w3.org/2000/svg" viewBox="0 0 32 32" width="32" height="32" fill="none">
  <path fill="currentColor"
    d="M4.92,27.13c-.18,0-.37-.07-.51-.2-.2-.18-.28-.46-.22-.72l1.27-5.2c-1.26-1.68-1.92-3.61-1.92-5.61,0-5.8,5.58-10.52,12.45-10.52s12.45,4.72,12.45,10.52-5.58,10.52-12.45,10.52c-1.64,0-3.25-.27-4.77-.81l-6.08,1.99c-.08.03-.15.04-.23.04ZM16,6.36c-6.04,0-10.96,4.05-10.96,9.03,0,1.78.63,3.5,1.82,4.98.14.18.2.42.14.64l-1.04,4.25,5.05-1.65c.16-.05.33-.05.49.01,1.43.53,2.94.8,4.5.8,6.04,0,10.96-4.05,10.96-9.03s-4.92-9.03-10.96-9.03Z" />
  <path fill="currentColor"
    d="M20.9,8.99v2.38h2.28v1.35h-2.28v2.27h-1.39v-2.27h-2.28v-1.35h2.28v-2.38h1.39Z" />
  <path fill="currentColor" d="M14.51,17.97v1.35h-4.96v-1.35h4.96Z" />
  <path fill="currentColor"
    d="M20.66,20.81c-.1,0-.21-.04-.28-.12l-9.98-9.98c-.16-.16-.16-.41,0-.57s.41-.16.57,0l9.98,9.98c.16.16.16.41,0,.57-.08.08-.18.12-.28.12Z" />
</svg>