<?xml version="1.0" encoding="UTF-8"?>
<svg xmlns="http://www.w3.org/2000/svg" viewBox="0 0 32 32" width="24" height="24" fill="none">
  <path fill="currentColor"
    d="M26.07,8.51H5.93c-.49,0-.88-.39-.88-.88s.39-.88.88-.88h20.14c.49,0,.88.39.88.88s-.39.88-.88.88Z" />
  <path fill="currentColor"
    d="M26.07,14.09H5.93c-.49,0-.88-.39-.88-.88s.39-.88.88-.88h20.14c.49,0,.88.39.88.88s-.39.88-.88.88Z" />
  <path fill="currentColor"
    d="M15.5,25.25H5.93c-.49,0-.88-.39-.88-.88s.39-.88.88-.88h9.58c.49,0,.88.39.88.88s-.39.88-.88.88Z" />
  <path fill="currentColor"
    d="M26.07,19.67H5.93c-.49,0-.88-.39-.88-.88s.39-.88.88-.88h20.14c.49,0,.88.39.88.88s-.39.88-.88.88Z" />
</svg>
