<?xml version="1.0" encoding="UTF-8"?>
<svg xmlns="http://www.w3.org/2000/svg" viewBox="0 0 32 32" width="24" height="24">
  <path fill="currentColor"
    d="M23.58,24.31h1.9c.36,0,.7-.14.96-.4.26-.26.4-.6.4-.95v-1.9c0-.32-.26-.58-.58-.58s-.58.26-.58.58v1.9c0,.06-.03.11-.06.13-.03.03-.08.05-.13.06h-1.9c-.32,0-.58.26-.58.58s.26.58.58.58Z" />
  <path fill="currentColor"
    d="M5.93,10.36c-.32,0-.58.26-.58.58v1.65c0,.32.26.58.58.58s.58-.26.58-.58v-1.65c0-.32-.26-.58-.58-.58Z" />
  <path fill="currentColor"
    d="M29.6,9.03c-.47-.47-1.1-.74-1.77-.74h-5.95v-1.81c0-.58-.23-1.13-.64-1.54-.41-.41-.96-.64-1.54-.64h-7.4c-.58,0-1.13.23-1.55.64l-.03.03c-.4.41-.61.95-.61,1.51v1.81h-5.95c-.67,0-1.3.26-1.77.74-.47.47-.74,1.1-.74,1.77v3.27c0,.49.17.96.47,1.34.2.24.45.44.73.58v8.13c0,.65.25,1.27.71,1.74l.03.03c.47.47,1.1.73,1.77.73h21.26c.67,0,1.3-.26,1.77-.74.47-.47.73-1.1.73-1.77v-8.13c.28-.13.53-.33.73-.58.3-.38.47-.85.47-1.34v-3.27c0-.67-.26-1.3-.74-1.77ZM11.29,8.29v-1.81c0-.26.1-.51.28-.7l.02-.02c.19-.19.45-.3.72-.3h7.4c.27,0,.52.11.72.3.19.19.3.44.3.72v1.81h-9.43ZM17.67,15.96c-.32-.32-.74-.5-1.2-.5h-.95c-.45,0-.87.18-1.2.5-.32.32-.5.75-.5,1.19v.03l-10.23-2.18h-.05c-.21-.06-.38-.17-.52-.34-.13-.17-.21-.38-.21-.6v-3.27c0-.36.14-.69.39-.95.25-.25.59-.39.95-.39h23.67c.36,0,.69.14.95.39.25.25.39.59.39.95v3.27c0,.23-.07.44-.21.6-.13.16-.31.27-.49.32l-10.32,2.2v-.03c0-.45-.18-.88-.5-1.2ZM15.16,16.79c.1-.1.23-.15.37-.15h.97c.13,0,.25.06.34.15.1.1.15.23.15.37v2.18c0,.14-.05.27-.15.37-.1.1-.23.15-.37.15h-.95c-.14,0-.27-.05-.37-.15-.1-.1-.15-.23-.15-.37v-2.18c0-.14.06-.27.16-.37ZM4.03,16.29l9.81,2.09v.95c0,.45.18.88.5,1.2.32.32.75.5,1.19.5h.95c.45,0,.88-.18,1.2-.5.32-.32.5-.75.5-1.19v-.95l9.81-2.09v7.83c0,.36-.14.7-.39.95-.25.25-.59.39-.95.39H5.37c-.36,0-.69-.14-.97-.41-.24-.25-.37-.58-.37-.93v-7.83Z" />
  <path fill="currentColor"
    d="M8.04,10.36c-.32,0-.58.26-.58.58v2.89c0,.32.26.58.58.58s.58-.26.58-.58v-2.89c0-.32-.26-.58-.58-.58Z" />
</svg>
