<?xml version="1.0" encoding="UTF-8"?>
<svg xmlns="http://www.w3.org/2000/svg" viewBox="0 0 32 32" fill="none" width="24" height="24">
  <path fill="currentColor"
    d="M19.26,24.38h-6.52c-.19,0-.35-.06-.47-.18s-.18-.28-.18-.47.06-.35.18-.47.28-.18.47-.18h6.52c.19,0,.35.06.47.18s.18.28.18.47-.06.35-.18.47-.28.18-.47.18Z" />
  <path fill="currentColor"
    d="M18.95,27.8l-2.4,1.22c-.19.08-.39.12-.59.12s-.4-.04-.59-.12l-2.32-1.22h5.9Z" />
  <path fill="currentColor"
    d="M19.26,26.74h-6.52c-.19,0-.35-.06-.47-.18s-.18-.28-.18-.47.06-.35.18-.47.28-.18.47-.18h6.52c.19,0,.35.06.47.18s.18.28.18.47-.06.35-.18.47-.28.18-.47.18Z" />
  <path fill="currentColor"
    d="M21.76,11.77c0-1.49-.49-2.67-1.46-3.56-.97-.89-2.09-1.33-3.34-1.33-.2,0-.36.06-.49.19s-.19.29-.19.49.06.36.19.49.29.19.49.19c.83,0,1.61.34,2.34,1.01.73.67,1.09,1.51,1.09,2.51,0,.17.06.33.19.47.13.14.29.21.49.21s.36-.07.49-.21c.13-.14.19-.3.19-.47Z" />
  <path fill="currentColor"
    d="M16,2.86c-5.14,0-9.32,4.18-9.32,9.32,0,3.39,1.83,6.36,4.55,7.99v.17c0,.93.75,1.68,1.68,1.68h6.2c.93,0,1.68-.75,1.68-1.68v-.17c2.72-1.63,4.55-4.6,4.55-7.99,0-5.14-4.18-9.32-9.32-9.32ZM20.78,18.53c-.45.34-.93.63-1.44.87v.95c0,.13-.11.24-.24.24h-6.2c-.13,0-.24-.11-.24-.24v-.95c-.51-.24-.99-.53-1.44-.87-1.92-1.45-3.18-3.75-3.18-6.34,0-4.39,3.57-7.96,7.96-7.96s7.96,3.57,7.96,7.96c0,2.59-1.25,4.89-3.18,6.34Z" />
</svg>
