<svg width="16" height="16" viewBox="0 0 16 16" fill="none" xmlns="http://www.w3.org/2000/svg">
<path d="M8.08618 1.63874L8.08617 1.63876L8.0911 1.64076C8.28211 1.71835 8.40192 1.90114 8.39998 2.09867L8.39995 2.09867V2.10458L8.39995 13.9059C8.39995 13.9061 8.39995 13.9062 8.39995 13.9064C8.39947 14.1034 8.27962 14.283 8.09148 14.3593L8.09147 14.3593L8.08595 14.3616C8.02549 14.3868 7.95966 14.4 7.89254 14.4L7.89126 14.4C7.75682 14.4003 7.62895 14.3474 7.53595 14.2552L7.53581 14.2551L4.65552 11.4006C4.54315 11.2892 4.39136 11.2268 4.23317 11.2268H1.92855C1.18985 11.2268 0.6 10.6346 0.6 9.91421V6.08911C0.6 5.36868 1.18985 4.77656 1.92855 4.77656H4.23317C4.39136 4.77656 4.54315 4.71409 4.65552 4.60273L7.53581 1.74825L7.53581 1.74826L7.53805 1.74601C7.67996 1.60388 7.89736 1.56007 8.08618 1.63874Z" stroke="#2445F0" stroke-width="1.2" stroke-linecap="round" stroke-linejoin="round"/>
<path d="M11 10.5C11 10.5 12 9.78571 12 8C12 6.21429 11 5.5 11 5.5" stroke="#2445F0" stroke-width="1.2" stroke-linecap="round" stroke-linejoin="round"/>
<path d="M13 12.5C13 12.5 15 11.2143 15 8C15 4.78571 13 3.5 13 3.5" stroke="#2445F0" stroke-width="1.2" stroke-linecap="round" stroke-linejoin="round"/>
</svg>
