<?xml version="1.0" encoding="UTF-8"?>
<svg xmlns="http://www.w3.org/2000/svg" fill="none" viewBox="0 0 32 32">
  <path stroke="currentColor" fill="currentColor"
    d="M25.46,5.28h-3.99c-.14-.68-.75-1.19-1.47-1.19h-.3v-.14c0-.63-.51-1.14-1.14-1.14h-5.12c-.63,0-1.14.51-1.14,1.14v.14h-.3c-.72,0-1.32.51-1.47,1.19h-3.99c-1.52,0-2.75,1.23-2.75,2.75v18.4c0,1.52,1.23,2.75,2.75,2.75h18.92c1.52,0,2.75-1.23,2.75-2.75V8.03c0-1.52-1.23-2.75-2.75-2.75ZM12,5.1h.8c.28,0,.5-.22.5-.5v-.64c0-.08.06-.14.14-.14h5.12c.08,0,.14.06.14.14v.64c0,.28.22.5.5.5h.8c.16,0,.29.08.38.19.07.09.12.19.12.31v2c0,.28-.22.5-.5.5h-8c-.28,0-.5-.22-.5-.5v-2c0-.12.05-.23.12-.31.09-.11.23-.19.38-.19ZM26.71,26.43c0,.69-.56,1.25-1.25,1.25H6.54c-.69,0-1.25-.56-1.25-1.25V8.03c0-.69.56-1.25,1.25-1.25h3.96v.81c0,.83.67,1.5,1.5,1.5h8c.83,0,1.5-.67,1.5-1.5v-.81h3.96c.69,0,1.25.56,1.25,1.25v18.4Z" />
  <path stroke="currentColor" fill="currentColor"
    d="M10.48,15.09l-2.59-2.59c-.2-.2-.2-.51,0-.71s.51-.2.71,0l1.88,1.88,2.95-2.95c.2-.2.51-.2.71,0s.2.51,0,.71l-3.66,3.66Z" />
  <path stroke="currentColor" fill="currentColor"
    d="M10.48,20.2l-2.59-2.59c-.2-.2-.2-.51,0-.71s.51-.2.71,0l1.88,1.88,2.95-2.95c.2-.2.51-.2.71,0s.2.51,0,.71l-3.66,3.66Z" />
  <path stroke="currentColor" fill="currentColor"
    d="M10.48,25.31l-2.59-2.59c-.2-.2-.2-.51,0-.71s.51-.2.71,0l1.88,1.88,2.95-2.95c.2-.2.51-.2.71,0s.2.51,0,.71l-3.66,3.66Z" />
  <path stroke="currentColor" fill="currentColor"
    d="M23.79,13.57h-7.42c-.35,0-.62-.28-.62-.62s.28-.62.62-.62h7.42c.35,0,.62.28.62.62s-.28.62-.62.62Z" />
  <path stroke="currentColor" fill="currentColor"
    d="M23.79,18.68h-7.42c-.35,0-.62-.28-.62-.62s.28-.62.62-.62h7.42c.35,0,.62.28.62.62s-.28.62-.62.62Z" />
  <path stroke="currentColor" fill="currentColor"
    d="M23.79,23.79h-7.42c-.35,0-.62-.28-.62-.62s.28-.62.62-.62h7.42c.35,0,.62.28.62.62s-.28.62-.62.62Z" />
</svg>
