<?xml version="1.0" encoding="UTF-8"?>
<svg xmlns="http://www.w3.org/2000/svg" viewBox="0 0 32 32" width="32" height="32" fill="none">
  <path fill="currentColor"
    d="M16,23.01c-3.87,0-7.01-3.14-7.01-7.01s3.14-7.01,7.01-7.01c.69,0,1.38.1,2.04.3.41.12.64.56.51.96-.12.41-.56.64-.96.51-.52-.16-1.05-.24-1.59-.24-3.01,0-5.46,2.45-5.46,5.46s2.45,5.46,5.46,5.46,5.46-2.45,5.46-5.46c0-.63-.11-1.26-.34-1.88-.15-.4.06-.84.46-.99.4-.15.85.06.99.46.29.79.43,1.6.43,2.41,0,3.87-3.14,7.01-7.01,7.01Z" />
  <path fill="currentColor"
    d="M16,28.11c-6.68,0-12.11-5.43-12.11-12.11S9.32,3.89,16,3.89c1.29,0,2.58.21,3.83.63.4.13.62.57.49.98-.14.4-.57.62-.98.49-1.09-.36-2.22-.55-3.34-.55-5.83,0-10.57,4.74-10.57,10.57s4.74,10.57,10.57,10.57,10.57-4.74,10.57-10.57c0-1.3-.25-2.59-.73-3.83-.16-.4.04-.85.44-1s.85.04,1,.44c.55,1.42.83,2.9.83,4.4,0,6.68-5.43,12.11-12.11,12.11Z" />
  <path fill="currentColor"
    d="M16.37,15.77c.28.28.69.27.97,0,0,0,0,0,.01,0l4.68-4.88h2.53c.19,0,.37-.08.5-.22l4.27-4.46c.2-.21.26-.53.15-.8-.11-.27-.37-.45-.65-.45h-2.16v-2.2c0-.3-.17-.57-.43-.68-.26-.11-.57-.05-.77.16l-4.23,4.46c-.13.14-.21.32-.21.52v2.63s-4.68,4.88-4.68,4.88c0,0,0,0,0,.01-.26.29-.27.74.02,1.03Z" />
</svg>