<?xml version="1.0" encoding="UTF-8"?>
<svg xmlns="http://www.w3.org/2000/svg" viewBox="0 0 32 32" width="32" height="32" fill="none">
  <path fill="currentColor"
    d="M28.78,12.96c.45.39.51,1.07.12,1.52l-10.07,11.75c-.3.36-.75.56-1.22.57-.47,0-.91-.19-1.23-.54l-4.68-5.26c-.4-.45-.36-1.13.09-1.52l.81-.72c.45-.4,1.13-.36,1.52.09l3.45,3.88,8.86-10.34c.39-.45,1.07-.51,1.52-.12l.82.7Z" />
  <path fill="currentColor"
    d="M24.37,26.65h-2.93l-.9,1.05c-.29.34-.65.61-1.04.83h4.87c1.04,0,1.88-.84,1.88-1.88v-5.61l-1.88,2.2v3.42ZM24.37,26.65v.94-.94Z" />
  <path fill="currentColor"
    d="M13.73,26.65H5.47V6.07h18.9s0,5.26,0,5.26l.36-.42c.41-.47.94-.8,1.52-.99v-3.85c0-1.04-.84-1.88-1.88-1.88H5.47c-1.04,0-1.88.84-1.88,1.88v20.57c0,1.04.84,1.88,1.88,1.88h10.23c-.37-.21-.71-.46-.99-.78l-.98-1.1Z" />
  <path fill="currentColor"
    d="M21.22,10.85h-12.6c-.43,0-.79-.35-.79-.79s.35-.79.79-.79h12.6c.43,0,.79.35.79.79s-.35.79-.79.79Z" />
  <path fill="currentColor"
    d="M21.22,15.05h-12.6c-.43,0-.79-.35-.79-.79s.35-.79.79-.79h12.6c.43,0,.79.35.79.79s-.35.79-.79.79Z" />
  <path fill="currentColor"
    d="M10.28,19.25h-1.66c-.43,0-.79-.35-.79-.79s.35-.79.79-.79h1.66c.43,0,.79.35.79.79s-.35.79-.79.79Z" />
  <path fill="currentColor"
    d="M9.59,23.45h-.97c-.43,0-.79-.35-.79-.79s.35-.79.79-.79h.97c.43,0,.79.35.79.79s-.35.79-.79.79Z" />
  <path fill="currentColor"
    d="M18.99,19.25h-2.47c-.43,0-.79-.35-.79-.79s.35-.79.79-.79h2.47c.43,0,.79.35.79.79s-.35.79-.79.79Z" />
</svg>