<?xml version="1.0" encoding="UTF-8"?>
<svg xmlns="http://www.w3.org/2000/svg" viewBox="0 0 32 32" width="32" height="32" fill="none">
  <path fill="currentColor"
    d="M25.85,12.66h-2.68v-1.45c0-2.55-.84-3.59-2.91-3.59h-.95v-.72c0-1.09-.89-1.98-1.98-1.98H6.15c-1.09,0-1.98.89-1.98,1.98v2.64c0,1.09.89,1.98,1.98,1.98h11.18c1.09,0,1.98-.89,1.98-1.98v-.72h.95c1.06,0,1.71.16,1.71,2.39v1.45h-7.3c-1.09,0-1.98.89-1.98,1.98v.72h-.81c-2.9,0-3.04,1.3-3.04,3.59v1.53h-2.68c-1.09,0-1.98.89-1.98,1.98v2.64c0,1.09.89,1.98,1.98,1.98h11.18c1.09,0,1.98-.89,1.98-1.98v-2.64c0-1.09-.89-1.98-1.98-1.98h-7.3v-1.53c0-2.19.05-2.39,1.85-2.39h.81v.72c0,1.09.89,1.98,1.98,1.98h11.18c1.09,0,1.98-.89,1.98-1.98v-2.64c0-1.09-.89-1.98-1.98-1.98ZM18.02,9.54c0,.38-.31.69-.69.69H6.15c-.38,0-.69-.31-.69-.69v-2.64c0-.38.31-.69.69-.69h11.18c.38,0,.69.31.69.69v2.64ZM18.02,22.46v2.64c0,.38-.31.69-.69.69H6.15c-.38,0-.69-.31-.69-.69v-2.64c0-.38.31-.69.69-.69h11.18c.38,0,.69.31.69.69ZM26.54,17.28c0,.38-.31.69-.7.69h-11.18c-.38,0-.69-.31-.69-.69v-2.64c0-.38.31-.69.69-.69h11.18c.38,0,.7.31.7.69v2.64Z" />
  <path fill="currentColor"
    d="M25.95,22.32h-1.5l1.24,1.24h-4.18c-.29,0-.52.23-.52.52s.23.52.52.52h4.18l-1.24,1.24h1.5l1.76-1.76-1.76-1.76Z" />
</svg>