<svg width="48" height="48" viewBox="0 0 48 48" fill="none" xmlns="http://www.w3.org/2000/svg">
<path d="M29 38L43 38C44.6569 38 46 36.6569 46 35L46 14C46 12.3431 44.6569 11 43 11L29 11" stroke="#333333" stroke-width="3" stroke-linecap="round" stroke-linejoin="round"/>
<path d="M23 38L5 38C3.34314 38 2 36.6569 2 35L2 14C2 12.3431 3.34315 11 5 11L23 11" stroke="#333333" stroke-width="3" stroke-linecap="round" stroke-linejoin="round"/>
<path fill-rule="evenodd" clip-rule="evenodd" d="M7 18.9C7 18.6791 7.17909 18.5 7.4 18.5H18.6C18.8209 18.5 19 18.6791 19 18.9V21.5286C19 21.7495 18.8209 21.9286 18.6 21.9286H14.7143V30.1C14.7143 30.3209 14.5352 30.5 14.3143 30.5H11.6857C11.4648 30.5 11.2857 30.3209 11.2857 30.1V21.9286H7.4C7.17909 21.9286 7 21.7495 7 21.5286V18.9Z" fill="#333333"/>
<path d="M24 3L24 45" stroke="#333333" stroke-width="3" stroke-linecap="round" stroke-linejoin="round"/>
</svg>
