<svg width="49" height="48" viewBox="0 0 49 48" fill="none" xmlns="http://www.w3.org/2000/svg">
<path d="M39 39.6285L39 42C39 43.6569 37.6569 45 36 45L9 45C7.34314 45 6 43.6569 6 42L6 6C6 4.34315 7.34315 3 9 3L36 3C37.6569 3 39 4.34315 39 6L39 8.18049" stroke="#333333" stroke-width="3" stroke-linecap="round" stroke-linejoin="round"/>
<path d="M12 21H19" stroke="#333333" stroke-width="3" stroke-linecap="round" stroke-linejoin="round"/>
<path d="M12 35H23.5" stroke="#333333" stroke-width="3" stroke-linecap="round" stroke-linejoin="round"/>
<path d="M12 28H19" stroke="#333333" stroke-width="3" stroke-linecap="round" stroke-linejoin="round"/>
<path d="M12 14H23" stroke="#333333" stroke-width="3" stroke-linecap="round" stroke-linejoin="round"/>
<path d="M36 35C42.0751 35 47 30.0751 47 24C47 17.9249 42.0751 13 36 13C29.9249 13 25 17.9249 25 24C25 30.0751 29.9249 35 36 35Z" stroke="#333333" stroke-width="3" stroke-linecap="round" stroke-linejoin="round"/>
<path d="M34.5 18.5L36.5238 24.2619L40.7143 26.619" stroke="#333333" stroke-width="3" stroke-linecap="round" stroke-linejoin="round"/>
</svg>
