<?xml version="1.0" encoding="UTF-8"?>
<svg xmlns="http://www.w3.org/2000/svg" viewBox="0 0 32 32" width="32" height="32" fill="none">
  <path fill="currentColor"
    d="M5.38,11.68h5.62c.6,0,1.08.48,1.08,1.08h0c0,.6-.48,1.08-1.08,1.08h-5.62c-.6,0-1.08-.48-1.08-1.08h0c0-.6.48-1.08,1.08-1.08Z" />
  <path fill="currentColor"
    d="M5.38,18.16h1.32c.6,0,1.08.48,1.08,1.08h0c0,.6-.48,1.08-1.08,1.08h-1.32c-.6,0-1.08-.48-1.08-1.08h0c0-.6.48-1.08,1.08-1.08Z" />
  <path fill="currentColor"
    d="M5.38,24.64h5.64c.6,0,1.08.48,1.08,1.08h0c0,.6-.48,1.08-1.08,1.08h-5.64c-.6,0-1.08-.48-1.08-1.08h0c0-.6.48-1.08,1.08-1.08Z" />
  <path fill="currentColor"
    d="M21,11.68h5.62c.6,0,1.08.48,1.08,1.08h0c0,.6-.48,1.08-1.08,1.08h-5.62c-.6,0-1.08-.48-1.08-1.08h0c0-.6.48-1.08,1.08-1.08Z" />
  <path fill="currentColor"
    d="M25.4,18.16h1.22c.6,0,1.08.48,1.08,1.08h0c0,.6-.48,1.08-1.08,1.08h-1.22c-.6,0-1.08-.48-1.08-1.08h0c0-.6.48-1.08,1.08-1.08Z" />
  <path fill="currentColor"
    d="M5.38,5.2h5.62c.6,0,1.08.48,1.08,1.08h0c0,.6-.48,1.08-1.08,1.08h-5.62c-.6,0-1.08-.48-1.08-1.08h0c0-.6.48-1.08,1.08-1.08Z" />
  <path fill="currentColor"
    d="M21,5.2h5.62c.6,0,1.08.48,1.08,1.08h0c0,.6-.48,1.08-1.08,1.08h-5.62c-.6,0-1.08-.48-1.08-1.08h0c0-.6.48-1.08,1.08-1.08Z" />
  <rect fill="currentColor" x="12.77" y="17.99" width="1.94" height="8.34" rx=".57" ry=".57"
    transform="translate(-11.65 16.2) rotate(-45)" />
  <rect fill="currentColor" x="17.3" y="17.99" width="1.94" height="8.34" rx=".57" ry=".57"
    transform="translate(21.02 -6.42) rotate(45)" />
  <rect fill="currentColor" x="15.03" y="6.84" width="1.94" height="17.01" rx=".57" ry=".57" />
  <path fill="currentColor"
    d="M20.98,24.64h5.64c.6,0,1.08.48,1.08,1.08h0c0,.6-.48,1.08-1.08,1.08h-5.64c-.6,0-1.08-.48-1.08-1.08h0c0-.6.48-1.08,1.08-1.08Z" />
</svg>