<?xml version="1.0" encoding="UTF-8"?>
<svg xmlns="http://www.w3.org/2000/svg" viewBox="0 0 16 16" width="16" height="16" fill="none">
  <path fill="currentColor"
    d="M13.05,12.78l-5.89-5.89h0l-.65-.65h0l-3.29-3.29c-.28-.28-.74-.28-1.02,0s-.28.74,0,1.02l3.29,3.29-3.49,3.49-.62,3.87,3.87-.62,3.49-3.49,3.29,3.29c.28.28.74.28,1.02,0,.28-.28.28-.74,0-1.02ZM4.88,13.08l-2.41.46.46-2.41,3.22-3.22,1.95,1.95-3.22,3.22Z" />
  <path fill="currentColor"
    d="M14.21,5.04c.54-.54.54-1.41,0-1.95l-1.3-1.3c-.54-.54-1.41-.54-1.95,0l-1.3,1.3-2.46,2.46.65.65,1.81-1.81,1.95,1.95-1.81,1.81.65.65,2.46-2.46,1.3-1.3ZM10.3,3.74l1.3-1.3c.18-.18.47-.18.65,0l1.3,1.3c.18.18.18.47,0,.65l-1.3,1.3-1.95-1.95Z" />
</svg>