<?xml version="1.0" encoding="UTF-8"?>
<svg xmlns="http://www.w3.org/2000/svg" viewBox="0 0 32 32" width="24" height="24" fill="none">
  <defs>
    <style>.cls-2{fill:#ccd4ed;}</style>
  </defs>
  <path class="cls-2"
    d="M25.82,8.16H5.68c-.49,0-.88-.39-.88-.88s.39-.88.88-.88h20.14c.49,0,.88.39.88.88s-.39.88-.88.88Z" />
  <path class="cls-2"
    d="M25.82,13.74H5.68c-.49,0-.88-.39-.88-.88s.39-.88.88-.88h20.14c.49,0,.88.39.88.88s-.39.88-.88.88Z" />
  <path class="cls-2"
    d="M15.25,24.89H5.68c-.49,0-.88-.39-.88-.88s.39-.88.88-.88h9.58c.49,0,.88.39.88.88s-.39.88-.88.88Z" />
  <path class="cls-2"
    d="M25.82,19.31H5.68c-.49,0-.88-.39-.88-.88s.39-.88.88-.88h20.14c.49,0,.88.39.88.88s-.39.88-.88.88Z" />
  <path fill="currentColor"
    d="M25.82,13.74h-14.03c-.49,0-.88-.39-.88-.88s.39-.88.88-.88h14.03c.49,0,.88.39.88.88s-.39.88-.88.88Z" />
  <path fill="currentColor"
    d="M19.23,19.31H5.68c-.49,0-.88-.39-.88-.88s.39-.88.88-.88h13.55c.49,0,.88.39.88.88s-.39.88-.88.88Z" />
</svg>
