<?xml version="1.0" encoding="UTF-8"?>
<svg xmlns="http://www.w3.org/2000/svg" viewBox="0 0 32 32" width="32" height="32" fill="none">
  <circle fill="currentColor" cx="24.64" cy="24.64" r="2.7" />
  <circle fill="currentColor" cx="24.64" cy="16" r="2.7" />
  <path fill="currentColor"
    d="M24.64,10.06c-1.49,0-2.7-1.21-2.7-2.7s1.21-2.7,2.7-2.7,2.7,1.21,2.7,2.7-1.21,2.7-2.7,2.7ZM24.64,6.28c-.6,0-1.08.48-1.08,1.08s.49,1.08,1.08,1.08,1.08-.48,1.08-1.08-.48-1.08-1.08-1.08Z" />
  <circle fill="currentColor" cx="16" cy="24.64" r="2.7" />
  <circle fill="currentColor" cx="16" cy="16" r="2.7" />
  <path fill="currentColor"
    d="M16,10.06c-1.49,0-2.7-1.21-2.7-2.7s1.21-2.7,2.7-2.7,2.7,1.21,2.7,2.7-1.21,2.7-2.7,2.7ZM16,6.28c-.6,0-1.08.48-1.08,1.08s.48,1.08,1.08,1.08,1.08-.48,1.08-1.08-.49-1.08-1.08-1.08Z" />
  <path fill="currentColor"
    d="M7.36,27.34c-1.49,0-2.7-1.21-2.7-2.7s1.21-2.7,2.7-2.7,2.7,1.21,2.7,2.7-1.21,2.7-2.7,2.7ZM7.36,23.56c-.6,0-1.08.48-1.08,1.08s.48,1.08,1.08,1.08,1.08-.48,1.08-1.08-.48-1.08-1.08-1.08Z" />
  <path fill="currentColor"
    d="M7.36,18.7c-1.49,0-2.7-1.21-2.7-2.7s1.21-2.7,2.7-2.7,2.7,1.21,2.7,2.7-1.21,2.7-2.7,2.7ZM7.36,14.92c-.6,0-1.08.48-1.08,1.08s.48,1.08,1.08,1.08,1.08-.48,1.08-1.08-.48-1.08-1.08-1.08Z" />
  <path fill="currentColor"
    d="M7.36,10.06c-1.49,0-2.7-1.21-2.7-2.7s1.21-2.7,2.7-2.7,2.7,1.21,2.7,2.7-1.21,2.7-2.7,2.7ZM7.36,6.28c-.6,0-1.08.48-1.08,1.08s.48,1.08,1.08,1.08,1.08-.48,1.08-1.08-.48-1.08-1.08-1.08Z" />
</svg>