
<?xml version="1.0" encoding="UTF-8"?>
<svg xmlns="http://www.w3.org/2000/svg" version="1.1" viewBox="0 0 32 32" width="24" height="24" fill="none">
  <path fill="currentColor"
    d="M6.6,4.05c-.43.25-.78.46-1.05.64-.27.18-.54.42-.82.71-.26.28-.46.56-.59.87-.14.3-.23.69-.29,1.17h.66c.57,0,1.02.14,1.35.42.33.28.49.69.49,1.24,0,.39-.14.75-.44,1.08-.29.34-.69.5-1.19.5-.79,0-1.36-.26-1.7-.78s-.51-1.2-.51-2.05c0-.6.13-1.14.39-1.63s.57-.93.94-1.32c.38-.4.78-.73,1.2-1.01.42-.28.78-.5,1.06-.68l.5.83ZM11.72,4.05c-.43.25-.78.46-1.05.64-.27.18-.54.42-.82.71-.27.28-.47.58-.6.87-.13.3-.23.69-.28,1.16h.66c.57,0,1.02.14,1.35.42.33.28.49.69.49,1.24,0,.39-.14.75-.44,1.08-.29.34-.69.5-1.19.5-.79,0-1.36-.26-1.7-.78s-.51-1.2-.51-2.05c0-.6.13-1.14.39-1.63s.57-.93.94-1.32c.38-.4.78-.73,1.2-1.01.42-.28.78-.5,1.06-.68l.5.83Z" />
  <path fill="currentColor"
    d="M25.4,27.95c.43-.25.78-.46,1.05-.64.27-.18.54-.42.82-.71.26-.28.46-.56.59-.87.14-.3.23-.69.29-1.17h-.66c-.57,0-1.02-.14-1.35-.42-.33-.28-.49-.69-.49-1.24,0-.39.14-.75.44-1.08.29-.34.69-.5,1.19-.5.79,0,1.36.26,1.7.78s.51,1.2.51,2.05c0,.6-.13,1.14-.39,1.63s-.57.93-.94,1.32c-.38.4-.78.73-1.2,1.01-.42.28-.78.5-1.06.68l-.5-.83ZM20.28,27.95c.43-.25.78-.46,1.05-.64.27-.18.54-.42.82-.71.27-.28.47-.58.6-.87.13-.3.23-.69.28-1.16h-.66c-.57,0-1.02-.14-1.35-.42-.33-.28-.49-.69-.49-1.24,0-.39.14-.75.44-1.08.29-.34.69-.5,1.19-.5.79,0,1.36.26,1.7.78s.51,1.2.51,2.05c0,.6-.13,1.14-.39,1.63s-.57.93-.94,1.32c-.38.4-.78.73-1.2,1.01-.42.28-.78.5-1.06.68l-.5-.83Z" />
  <path fill="currentColor"
    d="M25.66,10.6h-10.14c-.49,0-.88-.39-.88-.88s.39-.88.88-.88h10.14c.49,0,.88.39.88.88s-.39.88-.88.88Z" />
  <path fill="currentColor"
    d="M25.66,16.88H5.52c-.49,0-.88-.39-.88-.88s.39-.88.88-.88h20.14c.49,0,.88.39.88.88s-.39.88-.88.88Z" />
  <path fill="currentColor"
    d="M15.66,23.16H5.52c-.49,0-.88-.39-.88-.88s.39-.88.88-.88h10.14c.49,0,.88.39.88.88s-.39.88-.88.88Z" />
</svg>
