<?xml version="1.0" encoding="UTF-8"?>
<svg xmlns="http://www.w3.org/2000/svg" version="1.1" viewBox="0 0 32 32" width="24" height="24"
  fill="none">
  <circle fill="currentColor" cx="24.4" cy="24.4" r="2.6" />
  <circle fill="currentColor" cx="24.4" cy="16" r="2.6" />
  <path fill="currentColor"
    d="M24.4,10.2c-1.5,0-2.6-1.2-2.6-2.6s1.2-2.6,2.6-2.6,2.6,1.2,2.6,2.6-1.2,2.6-2.6,2.6ZM24.4,6.5c-.6,0-1.1.5-1.1,1.1s.5,1.1,1.1,1.1,1.1-.5,1.1-1.1-.5-1.1-1.1-1.1Z" />
  <circle fill="currentColor" cx="16" cy="24.4" r="2.6" />
  <circle fill="currentColor" cx="16" cy="16" r="2.6" />
  <path fill="currentColor"
    d="M16,10.2c-1.5,0-2.6-1.2-2.6-2.6s1.2-2.6,2.6-2.6,2.6,1.2,2.6,2.6-1.2,2.6-2.6,2.6ZM16,6.5c-.6,0-1.1.5-1.1,1.1s.5,1.1,1.1,1.1,1.1-.5,1.1-1.1-.5-1.1-1.1-1.1Z" />
  <path fill="currentColor"
    d="M7.6,27.1c-1.5,0-2.6-1.2-2.6-2.6s1.2-2.6,2.6-2.6,2.6,1.2,2.6,2.6-1.2,2.6-2.6,2.6ZM7.6,23.4c-.6,0-1.1.5-1.1,1.1s.5,1.1,1.1,1.1,1.1-.5,1.1-1.1-.5-1.1-1.1-1.1Z" />
  <path fill="currentColor"
    d="M7.6,18.6c-1.5,0-2.6-1.2-2.6-2.6s1.2-2.6,2.6-2.6,2.6,1.2,2.6,2.6-1.2,2.6-2.6,2.6ZM7.6,14.9c-.6,0-1.1.5-1.1,1.1s.5,1.1,1.1,1.1,1.1-.5,1.1-1.1-.5-1.1-1.1-1.1Z" />
  <path fill="currentColor"
    d="M7.6,10.2c-1.5,0-2.6-1.2-2.6-2.6s1.2-2.6,2.6-2.6,2.6,1.2,2.6,2.6-1.2,2.6-2.6,2.6ZM7.6,6.5c-.6,0-1.1.5-1.1,1.1s.5,1.1,1.1,1.1,1.1-.5,1.1-1.1-.5-1.1-1.1-1.1Z" />
</svg>
