<?xml version="1.0" encoding="UTF-8"?>
<svg width="32" height="32" xmlns="http://www.w3.org/2000/svg" viewBox="0 0 32 32" fill="none">
  <path fill="currentColor"
    d="M28.1,29.19H3.9c-1.09,0-1.98-.89-1.98-1.98v-8.8c0-1.09.89-1.98,1.98-1.98h24.2c1.09,0,1.98.89,1.98,1.98v8.8c0,1.09-.89,1.98-1.98,1.98ZM3.9,18.19c-.12,0-.22.1-.22.22v8.8c0,.12.1.22.22.22h24.2c.12,0,.22-.1.22-.22v-8.8c0-.12-.1-.22-.22-.22H3.9Z" />
  <path fill="currentColor"
    d="M26.78,15.11h-1.76v-4.4l-18.1.05.05,4.35h-1.76v-4.4c0-.94.76-1.7,1.7-1.7h18.15c.94,0,1.7.76,1.7,1.7v4.4Z" />
  <path fill="currentColor"
    d="M24.3,7.68h-1.76v-3.11h-13.09v3.11h-1.76v-3.37c0-.83.67-1.5,1.5-1.5h13.61c.83,0,1.5.67,1.5,1.5v3.37Z" />
  <path fill="currentColor"
    d="M20.4,23.69h-8.8c-.49,0-.88-.39-.88-.88s.39-.88.88-.88h8.8c.49,0,.88.39.88.88s-.39.88-.88.88Z" />
</svg>