<?xml version="1.0" encoding="UTF-8"?>
<svg xmlns="http://www.w3.org/2000/svg" version="1.1" viewBox="0 0 500 160">
  <defs>
    <style>
      .cls-1 {
        fill: #ee4823;
      }

      .cls-1, .cls-2 {
        stroke-width: 0px;
      }

      .cls-2 {
        fill: #f6921e;
      }
    </style>
  </defs>
  <g>
    <path class="cls-2" d="M39.9,42.9c7.8,0,14,3.5,17.8,9,3.9-5.5,9.7-9,17.3-8.9,12.4,0,22.2,8.8,22.1,22.9v34.6h-11.8v-33.9c0-7-4.1-12.3-11-12.3s-11.1,5.2-11.1,12.1v34h-11.8v-34c0-6.9-4.2-12.2-11.1-12.2s-11.1,5.2-11.1,12.1v34h-11.8v-34.7c.1-14.1,10.1-22.7,22.3-22.7h.2Z"/>
    <path class="cls-2" d="M133.8,96.1l-23.2-51.7h12.7l16.6,38,16.9-37.9h12.3l-35.6,79.3h-12.3l12.6-27.8h0Z"/>
    <path class="cls-1" d="M186.5,21.7h26.9c17.6.1,29.4,11.3,29.4,27.1s-11.9,26.8-29.5,26.8h-3.6l-3.5-11.3h7.1c10.7,0,17.3-6.4,17.3-15.5s-6.5-15.7-17.2-15.7h-14.7l-.2,67.7h-12.1l.2-79.1h0Z"/>
    <path class="cls-1" d="M278.5,44.9h8.1v11.1h-6.8c-5.3,0-8.9,2.9-8.9,9.7v35.3h-11.8v-36.1c.1-12.1,7-19.9,19.4-19.9h0Z"/>
    <path class="cls-1" d="M299.5,73c0-16.5,12.1-29.3,29.6-29.2,17.5,0,29.5,12.9,29.5,29.4s-12.1,29.3-29.6,29.2c-17.5,0-29.5-12.8-29.5-29.4ZM329,91c10.9,0,17.6-8.2,17.7-17.9,0-9.7-6.7-18.1-17.6-18.1s-17.8,8.4-17.8,18.1,6.8,18,17.7,18h0Z"/>
    <path class="cls-1" d="M373.5,90.1h10.9c8.5,0,13.8-3.8,13.8-10.2s-3.2-7.9-10.7-13.6c-9-6.9-14.3-12.5-12.7-21.2h12.3c-.8,5.4,2.7,8.2,10.2,14.2,8.9,7,12.8,12.2,12.8,20.6,0,13.4-10.7,21.3-25.4,21.3h-7.7l-3.5-11.1h0Z"/>
  </g>
  <path class="cls-1" d="M426.8,72.4c0-15.8,11.6-28.5,28.3-28.4,16.1,0,27.7,11.5,26.8,24.6-.4,5.3-4.3,14.5-16.2,15.3l-5.2-7.4c1.7-.5,8.2-2.2,9.2-6.6,1.8-8-6-14.7-14.7-14.7s-16.4,7.7-16.4,17,6.8,18,20.9,18h21.5l-3.4,11.1h-19.4c-19,0-31.5-13-31.5-29h.1Z"/>
</svg>